<svg id="Layer_1" data-name="Layer 1" xmlns="http://www.w3.org/2000/svg" xmlns:xlink="http://www.w3.org/1999/xlink" viewBox="0 0 595.28 396.85"><defs><style>.cls-1{fill:none;}.cls-2{fill:#384f5b;}.cls-3{clip-path:url(#clip-path);}.cls-4{fill:#fff;}.cls-5{fill:#ed3345;}</style><clipPath id="clip-path" transform="translate(2 1.17)"><rect class="cls-1" x="-2" y="-1.17" width="595.28" height="396.85"/></clipPath></defs><title>logo-orbex</title><rect class="cls-2" width="595.28" height="396.85"/><g class="cls-3"><path class="cls-4" d="M162.73,152.92a6.43,6.43,0,0,1,2.35-5.32,8.74,8.74,0,0,1,5.74-1.91,6.6,6.6,0,0,1,7.13,7.23v8.46a33.85,33.85,0,0,1,3.61-7.42,22.05,22.05,0,0,1,5.32-5.61,23.82,23.82,0,0,1,7.38-3.52A34.56,34.56,0,0,1,204,143.6a7.35,7.35,0,0,1,5.66,2.09,6.53,6.53,0,0,1,2,4.56,6.42,6.42,0,0,1-1.91,4.42c-1.27,1.37-3.23,2-5.91,2a28,28,0,0,0-11,2,21.63,21.63,0,0,0-8.07,5.85,26.1,26.1,0,0,0-5,9.27A39.81,39.81,0,0,0,178,186.21v46.66a6,6,0,0,1-2.42,5.27,9,9,0,0,1-8.12,1.33A7,7,0,0,1,165,238.2a6.07,6.07,0,0,1-1.66-2.19,7.48,7.48,0,0,1-.63-3.14Z" transform="translate(2 1.17)"/><path class="cls-4" d="M95.94,239.92a55,55,0,1,1,55-55,55.08,55.08,0,0,1-55,55m0-95a40,40,0,1,0,40,40,40.07,40.07,0,0,0-40-40" transform="translate(2 1.17)"/><path class="cls-4" d="M274.59,129.88A54.86,54.86,0,0,0,234.78,147V107.4a7.82,7.82,0,0,0-.65-3.33,7.65,7.65,0,0,0-1.71-2.38,7.24,7.24,0,0,0-2.38-1.43,8.15,8.15,0,0,0-2.76-.49,8.51,8.51,0,0,0-5.27,1.92,6.81,6.81,0,0,0-2.44,5.71V227.57c0,2.65.79,4.61,2.34,5.83a8,8,0,0,0,5.09,1.87,8.43,8.43,0,0,0,5.37-1.94,6.94,6.94,0,0,0,2.41-5.76v-4.75a55,55,0,1,0,39.81-92.94m0,95A40.1,40.1,0,0,1,234.78,189v-8.28a40,40,0,1,1,39.81,44.17" transform="translate(2 1.17)"/><path class="cls-4" d="M524.76,198.14l-3.31-4L514,184.87,504.11,197l32.3,39.81c1.68,2.05,3.51,3.08,5.48,3.07a8,8,0,0,0,5.13-1.78,8.38,8.38,0,0,0,2.94-4.91,7,7,0,0,0-1.75-6Z" transform="translate(2 1.17)"/><path class="cls-4" d="M550,136.73a8.48,8.48,0,0,0-2.92-4.8,7.54,7.54,0,0,0-2.42-1.38,7,7,0,0,0-5.56.37,7.89,7.89,0,0,0-2.61,2.15l-32.34,39.7L514,184.88l34.23-42.19a6.83,6.83,0,0,0,1.75-6" transform="translate(2 1.17)"/><path class="cls-5" d="M494.18,172.77l-32.3-39.7a8.29,8.29,0,0,0-2.63-2.15,7.35,7.35,0,0,0-2.82-.77,7.49,7.49,0,0,0-2.75.4,7.86,7.86,0,0,0-2.44,1.38,8.46,8.46,0,0,0-2.89,4.8,6.81,6.81,0,0,0,1.73,6l34.26,42.19-7.49,9.21-3.32,4-23.44,29.1a6.93,6.93,0,0,0-1.74,6,8.4,8.4,0,0,0,2.92,4.91,8.06,8.06,0,0,0,5.14,1.78c2,0,3.79-1,5.48-3.07L494.18,197l9.88-12.15Z" transform="translate(2 1.17)"/><path class="cls-4" d="M392.69,224.92a40.07,40.07,0,0,1-40-40h95a55.18,55.18,0,1,0-7.88,28.27H421a39.86,39.86,0,0,1-28.31,11.76m0-80a40.06,40.06,0,0,1,37.14,25.18H355.55a40.06,40.06,0,0,1,37.14-25.18" transform="translate(2 1.17)"/><path class="cls-4" d="M45,282.21a9.85,9.85,0,0,1-4-2.43l1.37-2.2A9.23,9.23,0,0,0,46,279.89a13.61,13.61,0,0,0,4.85.88,10.35,10.35,0,0,0,5.67-1.39,4.35,4.35,0,0,0,2.14-3.84,3,3,0,0,0-.8-2.17,6,6,0,0,0-2-1.34,30.5,30.5,0,0,0-3.29-1.12,33.14,33.14,0,0,1-4-1.39,6.76,6.76,0,0,1-2.62-2,5.14,5.14,0,0,1-1.08-3.39,7,7,0,0,1,1.34-4.26A8.42,8.42,0,0,1,50,257.13a14.58,14.58,0,0,1,5.52-1,17.41,17.41,0,0,1,4.55.59,11,11,0,0,1,3.67,1.69l-1.17,2.27a10.46,10.46,0,0,0-3.3-1.61,13.57,13.57,0,0,0-3.9-.55A9.84,9.84,0,0,0,49.7,260a4.49,4.49,0,0,0-2.12,3.9,3.12,3.12,0,0,0,.83,2.24,5.92,5.92,0,0,0,2.07,1.38,31.88,31.88,0,0,0,3.32,1.13,33.5,33.5,0,0,1,4,1.38,7.1,7.1,0,0,1,2.57,1.89,4.8,4.8,0,0,1,1.07,3.25,6.88,6.88,0,0,1-1.39,4.3,8.6,8.6,0,0,1-3.83,2.75,15.49,15.49,0,0,1-5.63.94,16.65,16.65,0,0,1-5.59-.94" transform="translate(2 1.17)"/><path class="cls-4" d="M67,273.72a7.55,7.55,0,0,0,0,.79,6,6,0,0,0,1.72,4.63,7.34,7.34,0,0,0,5.14,1.59,10,10,0,0,0,3.69-.67,7.42,7.42,0,0,0,2.83-1.83l1.21,1.93A9.39,9.39,0,0,1,78,282.34a12.7,12.7,0,0,1-4.45.78,9.7,9.7,0,0,1-6.81-2.28,8,8,0,0,1-2.48-6.22,12.65,12.65,0,0,1,1.42-6,10.65,10.65,0,0,1,9.61-5.77,8.8,8.8,0,0,1,6.34,2.26,8.21,8.21,0,0,1,2.35,6.2,12.35,12.35,0,0,1-.27,2.43Zm3.15-6.83a8.89,8.89,0,0,0-2.88,4.82H81.44a6.47,6.47,0,0,0,0-.73,5.54,5.54,0,0,0-1.71-4.34,6.56,6.56,0,0,0-4.55-1.53,7.68,7.68,0,0,0-5.12,1.78" transform="translate(2 1.17)"/><path class="cls-4" d="M95.39,263.76a11.62,11.62,0,0,1,4.85-.93l-.49,2.62-.76,0a7.61,7.61,0,0,0-5.29,1.86,9.67,9.67,0,0,0-2.79,5.54l-2,10.12H86.21L90.15,263h2.58l-.68,3.64a8.26,8.26,0,0,1,3.34-2.86" transform="translate(2 1.17)"/><polygon class="cls-4" points="123.58 264.16 110.77 284.1 108 284.1 103.07 264.16 105.76 264.16 109.9 281.19 120.78 264.16 123.58 264.16"/><path class="cls-4" d="M124.2,263h2.69L123,282.93h-2.69Zm1.19-4.9a1.73,1.73,0,0,1-.51-1.24A2,2,0,0,1,127,254.8a1.78,1.78,0,0,1,1.32.51,1.59,1.59,0,0,1,.54,1.19,2,2,0,0,1-.61,1.52,2.08,2.08,0,0,1-1.52.6,1.73,1.73,0,0,1-1.31-.53" transform="translate(2 1.17)"/><path class="cls-4" d="M148.25,264.56a6.11,6.11,0,0,1,1.88,4.76,11.57,11.57,0,0,1-.23,2.27l-2.27,11.34h-2.69l2.27-11.38a10.14,10.14,0,0,0,.19-1.82,4.15,4.15,0,0,0-1.31-3.31,5.64,5.64,0,0,0-3.85-1.16,7.89,7.89,0,0,0-5.3,1.77,8.94,8.94,0,0,0-2.81,5.21L132,282.93h-2.69L133.26,263h2.58l-.64,3.19a9.71,9.71,0,0,1,7.8-3.34,7.45,7.45,0,0,1,5.25,1.73" transform="translate(2 1.17)"/><path class="cls-4" d="M176.37,263l-3.49,17.51q-1,5.24-3.85,7.6c-1.88,1.58-4.47,2.37-7.75,2.37a15.4,15.4,0,0,1-5.06-.78,10.51,10.51,0,0,1-3.81-2.21l1.59-2.05a8.24,8.24,0,0,0,3.16,1.95,12.65,12.65,0,0,0,4.31.7,8.88,8.88,0,0,0,5.84-1.74,9,9,0,0,0,2.8-5.39l.46-2.2a9.91,9.91,0,0,1-3.47,2.53,11.11,11.11,0,0,1-4.49.89,9.19,9.19,0,0,1-6.39-2.16,7.49,7.49,0,0,1-2.41-5.88,11.42,11.42,0,0,1,1.46-5.76,10.6,10.6,0,0,1,4-4.06,11.7,11.7,0,0,1,5.86-1.48,9.84,9.84,0,0,1,4.9,1.16,6.27,6.27,0,0,1,2.87,3.39l.84-4.39Zm-8.78,15.65a8,8,0,0,0,3.11-3.14,9.2,9.2,0,0,0,1.12-4.51,5.43,5.43,0,0,0-1.74-4.27,7.15,7.15,0,0,0-4.86-1.54,8.84,8.84,0,0,0-4.47,1.14,8.07,8.07,0,0,0-3.09,3.15,9.06,9.06,0,0,0-1.12,4.51,5.41,5.41,0,0,0,1.74,4.27,7.11,7.11,0,0,0,4.85,1.53,8.81,8.81,0,0,0,4.46-1.14" transform="translate(2 1.17)"/><polygon class="cls-4" points="200.13 259.99 190.76 259.99 191.25 257.56 212.75 257.56 212.22 259.99 202.9 259.99 198.08 284.1 195.31 284.1 200.13 259.99"/><path class="cls-4" d="M216.86,263.76a11.62,11.62,0,0,1,4.85-.93l-.49,2.62-.76,0a7.61,7.61,0,0,0-5.29,1.86,9.67,9.67,0,0,0-2.79,5.54l-2,10.12h-2.69L211.62,263h2.58l-.68,3.64a8.26,8.26,0,0,1,3.34-2.86" transform="translate(2 1.17)"/><path class="cls-4" d="M243.43,263l-4,19.94h-2.57l.64-3.15a10.2,10.2,0,0,1-3.41,2.47,10.71,10.71,0,0,1-4.36.87,9.52,9.52,0,0,1-4.51-1,7.35,7.35,0,0,1-3.07-2.93,8.83,8.83,0,0,1-1.11-4.5,12.51,12.51,0,0,1,1.46-6.06,10.78,10.78,0,0,1,4-4.23,11,11,0,0,1,5.75-1.53,9.53,9.53,0,0,1,4.79,1.11,6.56,6.56,0,0,1,2.8,3.21l.83-4.17Zm-8.68,16.54a8.15,8.15,0,0,0,3.09-3.33,10.17,10.17,0,0,0,1.12-4.8,6,6,0,0,0-1.72-4.57,6.78,6.78,0,0,0-4.83-1.64A8.27,8.27,0,0,0,228,266.4a8.43,8.43,0,0,0-3.1,3.35,10.29,10.29,0,0,0-1.11,4.8,6,6,0,0,0,1.72,4.55,6.75,6.75,0,0,0,4.84,1.63,8.34,8.34,0,0,0,4.43-1.2" transform="translate(2 1.17)"/><path class="cls-4" d="M269.63,254.8,264,282.93h-2.58l.65-3.15a10.14,10.14,0,0,1-3.42,2.47,10.63,10.63,0,0,1-4.35.87,9.59,9.59,0,0,1-4.52-1,7.41,7.41,0,0,1-3.07-2.93,8.93,8.93,0,0,1-1.1-4.5,12.51,12.51,0,0,1,1.46-6.06,10.75,10.75,0,0,1,4-4.23,11.08,11.08,0,0,1,5.76-1.53,9.47,9.47,0,0,1,4.76,1.11,6.57,6.57,0,0,1,2.83,3.21l2.46-12.36Zm-10.31,24.73a8.22,8.22,0,0,0,3.09-3.33,10.29,10.29,0,0,0,1.12-4.8,6.07,6.07,0,0,0-1.72-4.57,6.79,6.79,0,0,0-4.84-1.64,8.32,8.32,0,0,0-4.44,1.21,8.48,8.48,0,0,0-3.09,3.35,10.29,10.29,0,0,0-1.12,4.8,6,6,0,0,0,1.73,4.55,6.74,6.74,0,0,0,4.83,1.63,8.4,8.4,0,0,0,4.44-1.2" transform="translate(2 1.17)"/><path class="cls-4" d="M272.89,273.72a7,7,0,0,0,0,.79,6,6,0,0,0,1.73,4.63,7.33,7.33,0,0,0,5.13,1.59,10,10,0,0,0,3.7-.67,7.42,7.42,0,0,0,2.83-1.83l1.21,1.93a9.51,9.51,0,0,1-3.5,2.18,12.76,12.76,0,0,1-4.46.78,9.7,9.7,0,0,1-6.81-2.28,8,8,0,0,1-2.48-6.22,12.65,12.65,0,0,1,1.42-6,10.62,10.62,0,0,1,9.61-5.77,8.77,8.77,0,0,1,6.33,2.26,8.18,8.18,0,0,1,2.36,6.2,13.16,13.16,0,0,1-.27,2.43Zm3.15-6.83a8.89,8.89,0,0,0-2.88,4.82h14.21a4.73,4.73,0,0,0,0-.73,5.57,5.57,0,0,0-1.7-4.34,6.57,6.57,0,0,0-4.55-1.53,7.68,7.68,0,0,0-5.12,1.78" transform="translate(2 1.17)"/><path class="cls-4" d="M301.33,263.76a11.62,11.62,0,0,1,4.85-.93l-.49,2.62-.76,0a7.59,7.59,0,0,0-5.29,1.86,9.67,9.67,0,0,0-2.79,5.54l-2,10.12h-2.69L296.09,263h2.58l-.68,3.64a8.26,8.26,0,0,1,3.34-2.86" transform="translate(2 1.17)"/><path class="cls-4" d="M307.3,282.43a8.88,8.88,0,0,1-3.36-1.74l1.29-2.12a8.54,8.54,0,0,0,3,1.59,12.4,12.4,0,0,0,3.91.6,8.53,8.53,0,0,0,4.38-.92,2.94,2.94,0,0,0,1.54-2.64,2,2,0,0,0-.63-1.52,4.36,4.36,0,0,0-1.54-.87,26.87,26.87,0,0,0-2.65-.68,29.07,29.07,0,0,1-3.37-.91,5.28,5.28,0,0,1-2.2-1.44,3.87,3.87,0,0,1-.92-2.73,5.31,5.31,0,0,1,2.36-4.53,10.59,10.59,0,0,1,6.29-1.69,13.67,13.67,0,0,1,3.77.52,9.28,9.28,0,0,1,3,1.34L321,266.85a8.36,8.36,0,0,0-2.67-1.27,11.55,11.55,0,0,0-3.17-.43,7.8,7.8,0,0,0-4.24,1,3,3,0,0,0-1.52,2.66,2,2,0,0,0,.65,1.59,4,4,0,0,0,1.61.91,26.22,26.22,0,0,0,2.63.64,33.75,33.75,0,0,1,3.32.89,5.36,5.36,0,0,1,2.18,1.42,3.77,3.77,0,0,1,.91,2.66,5.23,5.23,0,0,1-2.41,4.57,11.18,11.18,0,0,1-6.43,1.65,15,15,0,0,1-4.56-.69" transform="translate(2 1.17)"/><path class="cls-4" d="M355,270.55a10.71,10.71,0,0,1-6,3.51l5,8.87h-3l-4.77-8.45c-.29,0-.74,0-1.37,0H337.3l-1.66,8.42h-2.81l5.31-26.54h9.55c3,0,5.34.65,7,2a6.66,6.66,0,0,1,2.48,5.53,10.1,10.1,0,0,1-2.14,6.66m-3.11-.47a7.23,7.23,0,0,0,2.44-5.92,4.69,4.69,0,0,0-1.78-4,8.17,8.17,0,0,0-5.08-1.36h-7.05l-2.69,13.26h7.16c3,0,5.37-.66,7-2" transform="translate(2 1.17)"/><path class="cls-4" d="M361,273.72a5.19,5.19,0,0,0,0,.79,6,6,0,0,0,1.72,4.63,7.38,7.38,0,0,0,5.14,1.59,10,10,0,0,0,3.7-.67,7.3,7.3,0,0,0,2.82-1.83l1.22,1.93a9.39,9.39,0,0,1-3.51,2.18,12.7,12.7,0,0,1-4.45.78,9.67,9.67,0,0,1-6.81-2.28,8,8,0,0,1-2.49-6.22,12.65,12.65,0,0,1,1.43-6,10.62,10.62,0,0,1,9.61-5.77,8.77,8.77,0,0,1,6.33,2.26,8.17,8.17,0,0,1,2.35,6.2,13.09,13.09,0,0,1-.26,2.43Zm3.14-6.83a9,9,0,0,0-2.88,4.82h14.22a4.73,4.73,0,0,0,0-.73,5.54,5.54,0,0,0-1.71-4.34,6.54,6.54,0,0,0-4.55-1.53,7.69,7.69,0,0,0-5.12,1.78" transform="translate(2 1.17)"/><path class="cls-4" d="M381.53,282.43a9,9,0,0,1-3.36-1.74l1.29-2.12a8.5,8.5,0,0,0,3,1.59,12.29,12.29,0,0,0,3.9.6,8.5,8.5,0,0,0,4.38-.92,2.92,2.92,0,0,0,1.54-2.64,2,2,0,0,0-.63-1.52,4.31,4.31,0,0,0-1.53-.87c-.61-.2-1.5-.43-2.66-.68a29.64,29.64,0,0,1-3.37-.91,5.34,5.34,0,0,1-2.2-1.44,3.87,3.87,0,0,1-.91-2.73,5.31,5.31,0,0,1,2.35-4.53,10.63,10.63,0,0,1,6.29-1.69,13.62,13.62,0,0,1,3.77.52,9.28,9.28,0,0,1,3,1.34l-1.13,2.16a8.42,8.42,0,0,0-2.68-1.27,11.48,11.48,0,0,0-3.16-.43,7.84,7.84,0,0,0-4.25,1,3,3,0,0,0-1.52,2.66,2.07,2.07,0,0,0,.65,1.59,4.08,4.08,0,0,0,1.61.91,25.84,25.84,0,0,0,2.64.64,34.23,34.23,0,0,1,3.31.89,5.3,5.3,0,0,1,2.18,1.42,3.77,3.77,0,0,1,.91,2.66,5.23,5.23,0,0,1-2.41,4.57,11.15,11.15,0,0,1-6.42,1.65,15,15,0,0,1-4.57-.69" transform="translate(2 1.17)"/><path class="cls-4" d="M415.88,263.86a7.38,7.38,0,0,1,3.09,2.92,8.76,8.76,0,0,1,1.1,4.47,12.62,12.62,0,0,1-1.46,6.08,10.74,10.74,0,0,1-4,4.25,11.15,11.15,0,0,1-5.8,1.54A9.37,9.37,0,0,1,404,282a6.5,6.5,0,0,1-2.8-3.24l-2.28,11.52h-2.69L401.64,263h2.58l-.64,3.18a9.7,9.7,0,0,1,3.41-2.48,10.84,10.84,0,0,1,4.36-.85,9.69,9.69,0,0,1,4.53,1m-2.73,15.67a8.32,8.32,0,0,0,3.07-3.31,10.26,10.26,0,0,0,1.12-4.82,6.07,6.07,0,0,0-1.72-4.57,6.79,6.79,0,0,0-4.84-1.64,8.25,8.25,0,0,0-4.42,1.19,8.45,8.45,0,0,0-3.07,3.33,10.24,10.24,0,0,0-1.11,4.84,6,6,0,0,0,1.72,4.55,6.74,6.74,0,0,0,4.83,1.63,8.28,8.28,0,0,0,4.42-1.2" transform="translate(2 1.17)"/><path class="cls-4" d="M426.36,282.08a7.68,7.68,0,0,1-3.17-3,8.73,8.73,0,0,1-1.11-4.46,12.41,12.41,0,0,1,1.47-6.06,10.81,10.81,0,0,1,4.12-4.23,11.59,11.59,0,0,1,5.93-1.53,9.32,9.32,0,0,1,6.62,2.27,8,8,0,0,1,2.44,6.14,12.51,12.51,0,0,1-1.47,6.08,10.8,10.8,0,0,1-4.12,4.25,11.57,11.57,0,0,1-5.93,1.54,10.46,10.46,0,0,1-4.78-1m9.4-2.55a8.22,8.22,0,0,0,3.09-3.33,10.17,10.17,0,0,0,1.12-4.8,6,6,0,0,0-1.72-4.57,6.77,6.77,0,0,0-4.84-1.64,8.29,8.29,0,0,0-7.52,4.56,10.18,10.18,0,0,0-1.13,4.8,6,6,0,0,0,1.73,4.55,6.76,6.76,0,0,0,4.83,1.63,8.37,8.37,0,0,0,4.44-1.2" transform="translate(2 1.17)"/><path class="cls-4" d="M463.84,264.56a6.13,6.13,0,0,1,1.87,4.76,12.34,12.34,0,0,1-.22,2.27l-2.28,11.34h-2.69l2.28-11.38a11.15,11.15,0,0,0,.19-1.82,4.19,4.19,0,0,0-1.31-3.31,5.66,5.66,0,0,0-3.85-1.16,7.92,7.92,0,0,0-5.31,1.77,9,9,0,0,0-2.81,5.21l-2.12,10.69H444.9L448.84,263h2.58l-.64,3.19a9.71,9.71,0,0,1,7.81-3.34,7.49,7.49,0,0,1,5.25,1.73" transform="translate(2 1.17)"/><path class="cls-4" d="M470.66,282.43a8.83,8.83,0,0,1-3.35-1.74l1.29-2.12a8.36,8.36,0,0,0,3,1.59,12.33,12.33,0,0,0,3.9.6,8.57,8.57,0,0,0,4.39-.92,2.93,2.93,0,0,0,1.53-2.64,2,2,0,0,0-.63-1.52,4.31,4.31,0,0,0-1.53-.87c-.61-.2-1.49-.43-2.65-.68a29.31,29.31,0,0,1-3.38-.91,5.34,5.34,0,0,1-2.2-1.44,3.87,3.87,0,0,1-.91-2.73,5.33,5.33,0,0,1,2.35-4.53,10.64,10.64,0,0,1,6.3-1.69,13.72,13.72,0,0,1,3.77.52,9.38,9.38,0,0,1,3,1.34l-1.14,2.16a8.47,8.47,0,0,0-2.67-1.27,11.6,11.6,0,0,0-3.17-.43,7.84,7.84,0,0,0-4.25,1,3,3,0,0,0-1.51,2.66,2.07,2.07,0,0,0,.64,1.59,4.16,4.16,0,0,0,1.61.91c.65.2,1.53.42,2.64.64,1.36.31,2.46.6,3.32.89a5.36,5.36,0,0,1,2.18,1.42,3.81,3.81,0,0,1,.91,2.66,5.25,5.25,0,0,1-2.41,4.57,11.2,11.2,0,0,1-6.43,1.65,15.1,15.1,0,0,1-4.57-.69" transform="translate(2 1.17)"/><path class="cls-4" d="M490.78,263h2.69l-4,19.94h-2.69Zm1.19-4.9a1.73,1.73,0,0,1-.51-1.24,2,2,0,0,1,.58-1.47,2.06,2.06,0,0,1,1.5-.58,1.82,1.82,0,0,1,1.33.51,1.58,1.58,0,0,1,.53,1.19,2,2,0,0,1-.61,1.52,2.07,2.07,0,0,1-1.52.6,1.7,1.7,0,0,1-1.3-.53" transform="translate(2 1.17)"/><path class="cls-4" d="M514.07,263.86a7.32,7.32,0,0,1,3.09,2.92,8.76,8.76,0,0,1,1.1,4.47,12.62,12.62,0,0,1-1.46,6.08,10.74,10.74,0,0,1-4,4.25,11.13,11.13,0,0,1-5.8,1.54,9.15,9.15,0,0,1-4.83-1.18,6.54,6.54,0,0,1-2.79-3.37l-.87,4.36h-2.58l5.61-28.13h2.7L502,266a10,10,0,0,1,3.35-2.33,10.78,10.78,0,0,1,4.23-.81,9.66,9.66,0,0,1,4.53,1m-2.73,15.67a8.32,8.32,0,0,0,3.07-3.31,10.26,10.26,0,0,0,1.12-4.82,6,6,0,0,0-1.72-4.57,6.75,6.75,0,0,0-4.84-1.64,8.3,8.3,0,0,0-4.42,1.19,8.45,8.45,0,0,0-3.07,3.33,10.37,10.37,0,0,0-1.11,4.84,6,6,0,0,0,1.72,4.55,6.74,6.74,0,0,0,4.83,1.63,8.28,8.28,0,0,0,4.42-1.2" transform="translate(2 1.17)"/><polygon class="cls-4" points="528.07 255.97 530.76 255.97 525.15 284.1 522.46 284.1 528.07 255.97"/><path class="cls-4" d="M550.26,263,535.7,285.51a13.61,13.61,0,0,1-3.41,3.88,6.6,6.6,0,0,1-3.79,1.08,7.76,7.76,0,0,1-2.73-.47,4.76,4.76,0,0,1-2-1.31l1.44-2a4.65,4.65,0,0,0,3.53,1.44,4.18,4.18,0,0,0,2.39-.72,8.63,8.63,0,0,0,2.19-2.5l1.41-2.13-5-19.82h2.73l4.13,17,10.88-17Z" transform="translate(2 1.17)"/></g></svg>